<svg id="logo" xmlns="http://www.w3.org/2000/svg" viewBox="0 0 1047.583 204.511"><path fill="#ED1C24" d="M0 0h188.89v160.085H0z"/><path fill="#2E3192" d="M38.478 36.554h188.89v160.085H38.478z"/><path fill="#FFF" d="M110.012 64.249c5.627-1.374 14.661-2.29 23.546-2.29 12.884 0 21.176 2.29 27.248 7.479 5.183 3.969 8.441 10.075 8.441 18.166 0 10.075-6.516 18.776-16.882 22.592v.458c9.478 2.29 20.584 10.38 20.584 25.645 0 8.854-3.406 15.723-8.589 20.607-6.812 6.564-18.067 9.617-34.356 9.617-8.885 0-15.697-.611-19.992-1.221V64.249zm12.884 42.131h11.699c13.476 0 21.473-7.48 21.473-17.402 0-11.906-8.737-16.791-21.769-16.791-5.924 0-9.33.458-11.403.916v33.277zm0 49.153c2.666.458 6.22.61 10.81.61 13.328 0 25.619-5.037 25.619-19.997 0-13.891-11.699-19.844-25.767-19.844h-10.662v39.231z"/><g fill="#FFF"><path d="M251.995 32.114c7.6-1.8 19.8-3 31.8-3 17.399 0 28.599 3 36.799 9.8 7 5.2 11.4 13.2 11.4 23.8 0 13.2-8.8 24.6-22.8 29.599v.6c12.8 3 27.799 13.6 27.799 33.6 0 11.6-4.6 20.6-11.6 27-9.2 8.6-24.399 12.6-46.399 12.6-12 0-21.2-.801-27-1.6V32.114zm17.4 55.199h15.8c18.2 0 29-9.8 29-22.8 0-15.6-11.8-22-29.4-22-8 0-12.6.6-15.399 1.2v43.6zm0 64.398c3.6.601 8.4.801 14.6.801 18 0 34.6-6.6 34.6-26.2 0-18.2-15.8-26-34.799-26h-14.4v51.399zM370.393 119.712c.4 23.8 15.4 33.6 33.2 33.6 12.6 0 20.4-2.2 26.8-5l3.2 12.6c-6.2 2.8-17 6.2-32.399 6.2-29.8 0-47.599-19.8-47.599-49 0-29.199 17.2-51.999 45.399-51.999 31.8 0 40 27.6 40 45.399 0 3.6-.2 6.2-.6 8.2h-68.001zm51.599-12.6c.2-11-4.6-28.399-24.4-28.399-18 0-25.6 16.2-27 28.399h51.4zM481.991 44.914v23.2h25.199v13.399h-25.199v52.199c0 12 3.399 18.801 13.199 18.801 4.8 0 7.601-.4 10.2-1.2l.8 13.399c-3.399 1.2-8.8 2.4-15.6 2.4-8.2 0-14.8-2.801-19-7.4-4.8-5.399-6.8-14-6.8-25.399v-52.8h-15v-13.4h15v-18l17.201-5.199zM594.988 141.711c0 8.4.4 16.6 1.4 23.2h-15.8l-1.4-12.2h-.6c-5.4 7.6-15.8 14.4-29.6 14.4-19.6 0-29.6-13.8-29.6-27.8 0-23.399 20.8-36.199 58.199-36v-2c0-7.8-2.2-22.399-22-22.2-9.2 0-18.6 2.6-25.399 7.2l-4-11.8c8-5 19.8-8.4 31.999-8.4 29.6 0 36.8 20.2 36.8 39.399v36.201zm-17-26.199c-19.199-.4-40.999 3-40.999 21.8 0 11.601 7.6 16.8 16.399 16.8 12.8 0 21-8 23.8-16.199.601-2 .8-4 .8-5.601v-16.8zM623.389 99.712c0-12.399-.399-22.399-.8-31.599h15.6l1 16.6h.4c7-11.8 18.6-18.6 34.399-18.6 23.6 0 41.199 19.799 41.199 48.999 0 34.8-21.399 52-44.199 52-12.8 0-24-5.6-29.8-15.2h-.4v52.6h-17.399v-104.8zm17.399 25.8c0 2.6.2 5 .801 7.199 3.199 12.201 13.8 20.601 26.399 20.601 18.6 0 29.399-15.2 29.399-37.399 0-19.2-10.2-35.8-28.8-35.8-12 0-23.399 8.4-26.6 21.6-.6 2.2-1.2 4.8-1.2 7v16.799zM737.186 22.914h17.6v141.998h-17.6V22.914zM852.383 141.711c0 8.4.4 16.6 1.4 23.2h-15.8l-1.4-12.2h-.6c-5.4 7.6-15.8 14.4-29.6 14.4-19.6 0-29.6-13.8-29.6-27.8 0-23.399 20.8-36.199 58.199-36v-2c0-7.8-2.2-22.399-22-22.2-9.2 0-18.6 2.6-25.399 7.2l-4-11.8c8-5 19.8-8.4 31.999-8.4 29.6 0 36.8 20.2 36.8 39.399v36.201zm-17-26.199c-19.199-.4-40.999 3-40.999 21.8 0 11.601 7.6 16.8 16.399 16.8 12.8 0 21-8 23.8-16.199.601-2 .8-4 .8-5.601v-16.8zM949.782 161.512c-4.6 2.199-14.8 5.6-27.8 5.6-29.199 0-48.199-19.8-48.199-49.399 0-29.8 20.4-51.599 51.999-51.599 10.4 0 19.601 2.6 24.4 5.2l-4 13.4c-4.2-2.2-10.8-4.6-20.4-4.6-22.199 0-34.199 16.6-34.199 36.6 0 22.399 14.4 36.199 33.6 36.199 10 0 16.6-2.399 21.6-4.6l2.999 13.199zM978.983 119.712c.4 23.8 15.4 33.6 33.199 33.6 12.601 0 20.4-2.2 26.8-5l3.2 12.6c-6.2 2.8-17 6.2-32.399 6.2-29.8 0-47.6-19.8-47.6-49 0-29.199 17.2-51.999 45.399-51.999 31.8 0 40 27.6 40 45.399 0 3.6-.2 6.2-.601 8.2h-67.998zm51.6-12.6c.2-11-4.601-28.399-24.399-28.399-18 0-25.6 16.2-27 28.399h51.399z"/></g></svg>